<?xml version="1.0"?>
<svg width="623.65002" height="623.63" xmlns="http://www.w3.org/2000/svg" xmlns:svg="http://www.w3.org/2000/svg">
 <g class="layer">
  <title>Layer 1</title>
  <path d="m311.82,623.63c-7.11,0 -14.2,-0.24 -21.06,-0.7c-7.09,-0.47 -14.19,-1.19 -21.12,-2.14c-3.05,-0.41 -5.81,-0.82 -8.44,-1.25c-7.81,-1.27 -15.76,-2.88 -23.62,-4.8c-2.69,-0.65 -5.33,-1.33 -7.83,-2.03c-0.88,-0.23 -1.78,-0.48 -2.67,-0.73c-3.8,-1.07 -7.48,-2.18 -10.92,-3.3c-0.22,-0.06 -0.48,-0.15 -0.74,-0.23c-3.11,-1 -6.35,-2.11 -9.62,-3.3c-2.76,-1 -5.56,-2.06 -8.56,-3.24c-6.25,-2.46 -12.51,-5.18 -18.61,-8.07c-2.54,-1.19 -5.19,-2.5 -8.11,-3.98c-0.52,-0.26 -1.05,-0.53 -1.57,-0.8l-0.6,-0.31c-34.28,-17.8 -64.67,-41.55 -90.31,-70.58c-50.32,-56.98 -78.04,-130.27 -78.04,-206.36c0,-83.29 32.44,-161.6 91.33,-220.49c58.89,-58.89 137.2,-91.32 220.49,-91.32s161.6,32.43 220.5,91.32c58.9,58.89 91.33,137.2 91.33,220.49c0,48.94 -11.02,95.79 -32.74,139.25c-20.72,41.44 -51.05,78.43 -87.73,106.96c-8.62,6.72 -17.7,13.04 -26.98,18.8c-9.41,5.86 -19.28,11.29 -29.34,16.13c-2.24,1.08 -4.64,2.2 -7.56,3.51l-0.28,0.12c-0.36,0.16 -0.72,0.32 -1.08,0.47c-2.18,0.97 -4.4,1.92 -6.59,2.82l-0.99,0.42c-0.62,0.26 -1.2,0.5 -1.78,0.72c-7.43,3 -14.92,5.7 -22.26,8.01c-0.58,0.2 -1.17,0.38 -1.77,0.56l-0.52,0.16c-6.1,1.89 -12.52,3.65 -19.05,5.22c-23.79,5.74 -48.41,8.65 -73.16,8.65l0,0.02l0,0l0,0zm0,-621.63c-82.76,0 -160.56,32.22 -219.08,90.74c-58.51,58.51 -90.74,136.31 -90.74,219.07c0,75.61 27.54,148.42 77.55,205.03c25.48,28.84 55.67,52.44 89.73,70.12l0.6,0.31c0.51,0.27 1.03,0.53 1.55,0.79c2.91,1.48 5.54,2.78 8.06,3.96c6.06,2.87 12.28,5.57 18.49,8.01c2.98,1.18 5.76,2.23 8.5,3.22c3.25,1.18 6.47,2.28 9.57,3.28c0.24,0.08 0.47,0.15 0.7,0.22c3.45,1.12 7.09,2.22 10.87,3.29c0.87,0.25 1.76,0.5 2.64,0.73c2.5,0.69 5.11,1.37 7.78,2.02c7.82,1.91 15.71,3.52 23.48,4.77c2.61,0.43 5.35,0.84 8.38,1.25c6.88,0.94 13.94,1.66 20.98,2.12c6.82,0.46 13.86,0.7 20.92,0.7c24.6,0 49.05,-2.89 72.7,-8.59c6.49,-1.56 12.86,-3.31 18.94,-5.19l0.52,-0.16c0.58,-0.18 1.15,-0.35 1.73,-0.55c7.31,-2.3 14.76,-4.98 22.15,-7.97c0.58,-0.23 1.14,-0.46 1.7,-0.69l1.23,-0.51c2.11,-0.87 4.25,-1.79 6.37,-2.73c0.37,-0.16 0.71,-0.31 1.06,-0.47l0.28,-0.12c2.9,-1.31 5.29,-2.42 7.51,-3.49c10,-4.81 19.81,-10.2 29.16,-16.03c9.22,-5.72 18.24,-12.01 26.81,-18.68c36.44,-28.36 66.58,-65.11 87.17,-106.28c21.58,-43.17 32.53,-89.72 32.53,-138.35c0,-82.76 -32.23,-160.56 -90.75,-219.07c-58.52,-58.53 -136.33,-90.75 -219.09,-90.75z" fill="#585b5f" id="svg_1"/>
  <polygon fill="#f3a3a6" id="svg_2" points="273.97 426.13 349.73999 444.28 340.95001 338.10001 274.03 343.64001 273.97 426.13"/>
  <circle cx="328.17" cy="294.74" fill="#f3a3a6" id="svg_3" r="73.76"/>
  <path d="m406.02,608.08c-0.59,0.2 -1.17,0.38 -1.76,0.56c-0.17,0.05 -0.34,0.11 -0.51,0.16c-6.25,1.94 -12.59,3.67 -19,5.21c-23.39,5.64 -47.82,8.62 -72.93,8.62c-7.06,0 -14.06,-0.23 -20.99,-0.7c-7.09,-0.47 -14.11,-1.18 -21.05,-2.13c-2.82,-0.38 -5.62,-0.79 -8.41,-1.25c-7.95,-1.29 -15.81,-2.9 -23.55,-4.79c-2.61,-0.63 -5.21,-1.3 -7.8,-2.02c-0.89,-0.23 -1.78,-0.48 -2.66,-0.73c-3.65,-1.03 -7.28,-2.12 -10.88,-3.29c-0.24,-0.07 -0.49,-0.15 -0.73,-0.23c-3.22,-1.04 -6.42,-2.14 -9.6,-3.29c-2.86,-1.03 -5.7,-2.11 -8.53,-3.23c-6.29,-2.48 -12.47,-5.16 -18.55,-8.04l2.34,-10.6l8.11,-36.72l17.61,-79.78l17.8,-80.62l46.77,1.3l0.02,0l2.28,0.07l71.13,1.98l31.12,0.87l29.77,218.65l0,0l0,0z" fill="#dadbdc" id="svg_4"/>
  <path d="m475.68,575.97c-9.42,5.87 -19.19,11.24 -29.25,16.08c-2.49,1.2 -5.01,2.36 -7.54,3.5c-0.45,0.2 -0.89,0.4 -1.34,0.59c-2.18,0.97 -4.37,1.91 -6.58,2.82l0,0l-0.99,0.42c-0.58,0.24 -1.16,0.48 -1.75,0.71c-7.27,2.94 -14.67,5.62 -22.2,7.99c-0.59,0.2 -1.17,0.38 -1.76,0.56l-65.24,-166.93l-4.41,-11.27l-12.3,-31.49l-4.08,-10.43l26.93,0.42l31.09,0.49c28.22,3.61 51.62,23.58 59.63,50.87l39.8,135.67l-0.01,0l0,0z" fill="#dadbdc" id="svg_5"/>
  <path d="m276.43,328.44c2.62,-0.44 5.24,-0.89 7.86,-1.33c0.62,-14.01 1.97,-29.64 12.46,-38.95c5.78,-5.13 14.14,-8.12 17.01,-15.3c2.38,-5.95 0.16,-13.26 3.48,-18.74c3.49,-5.77 11.29,-6.8 18.03,-7.22c10.55,-0.65 21.29,-1.29 31.56,1.21c10.27,2.51 20.18,8.69 24.56,18.31c1.35,2.96 2.13,6.15 2.91,9.31c2.63,10.69 6.66,31.03 6.66,31.03c0,0 0.78,-4.21 3,-12.4c4.53,-6.48 10.06,-12.46 12.72,-19.9c3.2,-8.96 1.79,-18.97 -1.35,-27.94c-7.13,-20.41 -23.67,-37.66 -44.27,-44.22c-20.61,-6.55 -40.1,-10.26 -55.5,4.92c-2.89,2.85 -5.49,6.03 -8.79,8.39c-6.1,4.37 -13.89,5.47 -20.77,8.49c-15.31,6.72 -29.15,22.88 -32.6,39.24c-3.45,16.36 -1.65,33.31 0.17,49.94c1.57,14.34 8.38,30.33 20.32,38.43c0.49,-7.34 0.98,-14.67 1.47,-22.01l1.06,-1.25l0.01,0l0,-0.01z" fill="#2f2e43" id="svg_6"/>
  <path d="m317.26,397.4l-0.72,1.18l-20.14,32.92l-29.86,48.84l-6.05,9.89l-22.06,36.08s-7.16,10.07 -19.24,22.98l-0.04,0.04c-4.39,4.68 -9.42,9.73 -14.99,14.8c-0.04,0.05 -0.08,0.09 -0.13,0.12c-6.8,6.2 -14.4,12.43 -22.62,18.08c-3.38,2.33 -6.86,4.55 -10.42,6.63c-0.73,-0.36 -1.45,-0.74 -2.17,-1.11c-34.22,-17.77 -64.72,-41.71 -90.02,-70.35c26.41,-42.18 78.67,-89.48 112.34,-117.65c19.05,-15.95 44.5,-21.96 68.66,-16.18l11.9,2.84l2.3,0.55l43.26,10.34l0,0z" fill="#dadbdc" id="svg_7"/>
  <path d="m411.22,387.25c-12.97,-4.67 -47.3,-4.69 -62.7,0.51c-2.99,1.01 -4.8,4.05 -4.28,7.16l0.61,3.69c-1.34,-0.2 -2.65,-0.58 -3.89,-1.15c-3.67,-1.68 -10.9,-3.96 -18.2,-0.32c-5.1,2.54 -8.69,7.33 -9.95,12.9c-3.01,13.32 4.58,20.69 4.58,20.69l10.11,9.49c8.47,7.94 17.71,15.02 27.58,21.12l0.2,0.12l-3.6,-21.66c-2.03,3.57 -6.62,4.74 -10.11,2.58c-8.82,-5.46 -23.23,-16.4 -21.48,-28.82c1.22,-8.66 6.03,-10.5 10.65,-10.11c5.17,0.44 9.68,3.69 11.89,8.38c0.53,1.12 1.4,2.04 2.48,2.64l2.6,1.42l7.62,45.91c0.34,2.06 1.66,3.84 3.53,4.76c17.92,8.79 37.26,4.23 43.95,2.18c1.53,-0.47 2.84,-1.48 3.66,-2.86l1.44,-2.39c0.5,-0.82 0.8,-1.75 0.9,-2.7l6.65,-66.82c0.29,-2.95 -1.46,-5.71 -4.25,-6.72l0.01,0z" fill="#9a4260" id="svg_8"/>
  <ellipse cx="380.17" cy="390.8" fill="#dedfe0" id="svg_9" rx="30.13" ry="2.84"/>
  <path d="m319.98,447.72c16.35,-12.51 22.82,-31.32 14.45,-42.01c-8.36,-10.69 -28.39,-9.22 -44.75,3.3c-6.6,4.91 -11.88,11.37 -15.37,18.84l-68.56,53.89l27.22,32.56l64.7,-56.59c8.19,-1.47 15.84,-4.9 22.3,-9.99l0.01,0z" fill="#f3a3a6" id="uuid-add59a10-2c6d-45b5-a06d-26741c0f8cf5-293"/>
  <polygon fill="#dadbdc" id="svg_10" points="274.62 494.54001 247.5 446.84 148.81 493.28 204.03 564.26001 274.62 494.54001"/>
  <path d="m215.47,461.91s-71.94,52.67 -69.28,52.38c2.66,-0.29 38.13,-19.8 38.13,-19.8l31.15,-32.58l0,0l0,0z" fill="#272223" id="svg_11" opacity="0.1"/>
 </g>
</svg>