<?xml version="1.0"?>
<svg width="623.65" height="623.63" xmlns="http://www.w3.org/2000/svg" xmlns:svg="http://www.w3.org/2000/svg">
 <g class="layer">
  <title>Layer 1</title>
  <path d="m311.82,623.63c-7.11,0 -14.19,-0.24 -21.06,-0.7c-7.08,-0.47 -14.19,-1.19 -21.12,-2.14c-3.05,-0.41 -5.81,-0.82 -8.44,-1.25c-7.81,-1.27 -15.76,-2.88 -23.63,-4.8c-2.7,-0.65 -5.33,-1.33 -7.83,-2.03c-0.88,-0.23 -1.78,-0.48 -2.67,-0.73c-3.8,-1.07 -7.48,-2.18 -10.92,-3.3c-0.22,-0.06 -0.48,-0.15 -0.74,-0.23c-3.1,-1 -6.34,-2.11 -9.62,-3.3c-2.77,-1 -5.57,-2.06 -8.56,-3.24c-9.76,-3.85 -19.48,-8.28 -28.89,-13.16c-49.92,-25.92 -91.99,-64.91 -121.69,-112.76c-30.51,-49.22 -46.65,-105.99 -46.65,-164.18c0,-83.29 32.44,-161.6 91.33,-220.49c58.89,-58.89 137.2,-91.32 220.49,-91.32s161.6,32.43 220.5,91.32c58.9,58.89 91.33,137.2 91.33,220.49c0,48.94 -11.02,95.79 -32.74,139.24c-20.72,41.44 -51.05,78.43 -87.73,106.96c-17.49,13.61 -36.43,25.37 -56.32,34.93c-2.25,1.09 -4.66,2.2 -7.56,3.51l-0.32,0.14c-0.35,0.16 -0.69,0.31 -1.04,0.46c-2.18,0.97 -4.4,1.92 -6.59,2.82l-0.99,0.42c-0.59,0.25 -1.18,0.49 -1.78,0.72c-8.04,3.25 -16.29,6.2 -24.54,8.73c-6.12,1.9 -12.53,3.66 -19.06,5.23c-23.79,5.74 -48.41,8.65 -73.16,8.65l0,0l0,0.01zm0,-621.6c-82.76,0 -160.56,32.22 -219.07,90.74c-58.52,58.48 -90.75,136.28 -90.75,219.04c0,57.82 16.04,114.22 46.37,163.11c29.5,47.54 71.31,86.29 120.91,112.04c9.35,4.85 19.01,9.25 28.71,13.08c2.97,1.18 5.75,2.23 8.5,3.22c3.27,1.18 6.48,2.28 9.57,3.28c0.24,0.08 0.47,0.15 0.7,0.22c3.44,1.12 7.09,2.22 10.87,3.29c0.88,0.25 1.76,0.5 2.64,0.73c2.49,0.69 5.1,1.37 7.78,2.02c7.82,1.91 15.71,3.51 23.48,4.77c2.61,0.43 5.35,0.84 8.38,1.25c6.88,0.94 13.94,1.66 20.98,2.12c6.82,0.46 13.86,0.7 20.92,0.7c24.59,0 49.05,-2.89 72.7,-8.59c6.49,-1.56 12.86,-3.31 18.94,-5.19c8.19,-2.52 16.4,-5.44 24.39,-8.68c0.6,-0.23 1.17,-0.47 1.74,-0.71l1.18,-0.5c2.11,-0.87 4.25,-1.79 6.37,-2.73c0.36,-0.15 0.69,-0.3 1.02,-0.45l0.32,-0.14c2.88,-1.3 5.27,-2.41 7.51,-3.49c19.76,-9.5 38.59,-21.18 55.96,-34.71c36.44,-28.36 66.58,-65.11 87.17,-106.28c21.58,-43.17 32.53,-89.72 32.53,-138.35c0,-82.76 -32.23,-160.56 -90.75,-219.07c-58.5,-58.53 -136.31,-90.75 -219.07,-90.75l0,0s0,0.03 0,0.03z" fill="#585b5f" id="svg_1"/>
  <path d="m283.5,177.84s-54.77,6.18 -58.3,90.99c-2.94,70.67 -8.96,110.06 19.79,124.8c10.28,5.27 22.36,5.73 33.34,2.13l117.37,-38.59s1.77,-127.21 -38.87,-158.13c-40.64,-30.92 -73.32,-21.2 -73.32,-21.2l0,0l-0.01,0z" fill="#2f2e41" id="svg_2"/>
  <polygon fill="#f6a6a9" id="svg_3" points="348.2 372.79 288.8 392.32 288.8 306.82 342.69 306.82 348.2 372.79"/>
  <path d="m428.22,600.09c-8,3.24 -16.16,6.15 -24.47,8.71c-6.25,1.94 -12.59,3.67 -19,5.21c-23.39,5.64 -47.82,8.62 -72.93,8.62c-7.06,0 -14.06,-0.23 -20.99,-0.7c-7.09,-0.47 -14.11,-1.18 -21.05,-2.13c-2.82,-0.38 -5.62,-0.79 -8.41,-1.25c-7.95,-1.29 -15.81,-2.9 -23.55,-4.79c-2.61,-0.63 -5.21,-1.3 -7.8,-2.02c-0.89,-0.23 -1.78,-0.48 -2.66,-0.73c-3.65,-1.03 -7.28,-2.12 -10.88,-3.29c-0.24,-0.07 -0.49,-0.15 -0.73,-0.23c-3.22,-1.04 -6.42,-2.14 -9.6,-3.29c-2.86,-1.03 -5.7,-2.11 -8.53,-3.23l61.71,-203.11l2.57,-8.45l9.12,-30.01l0.07,-0.24l0.07,-0.22l107.77,0l0.72,3.51l17.67,86.44l12.73,62.3l12.52,61.23l5.15,25.2l0.5,2.47l0,0z" fill="#dddedf" id="svg_4"/>
  <path d="m288.16,358.99l-7.25,30.03l-1.01,4.21l-0.53,2.19l-32.16,133.31l-19.85,82.28c-3.65,-1.03 -7.28,-2.12 -10.88,-3.29c-0.24,-0.07 -0.49,-0.15 -0.73,-0.23c-3.22,-1.04 -6.42,-2.14 -9.6,-3.29c-2.86,-1.03 -5.7,-2.11 -8.53,-3.23c-9.86,-3.89 -19.47,-8.28 -28.8,-13.12c20.83,-103.1 41.74,-204.47 45.14,-212.96c1.49,-3.73 5.66,-6.59 11.31,-8.79c1.63,-0.64 3.39,-1.22 5.24,-1.75c12.13,-3.46 28.32,-4.73 40.46,-5.18l0.12,0c4.84,-0.17 9.03,-0.22 12.05,-0.22s5.02,0.05 5.02,0.05l0,0l0,-0.01z" fill="#dddedf" id="svg_5"/>
  <circle cx="296.15" cy="271.3" fill="#f6a6a9" id="svg_6" r="59.19"/>
  <path d="m279.97,199.93s-32.57,132.25 3.65,194.09l-51.02,-10.84s-19.77,-144.76 19.99,-171.07l27.39,-12.18l0,0l-0.01,0z" fill="#2f2e41" id="svg_7"/>
  <path d="m269.78,619.8c-2.82,-0.38 -5.62,-0.79 -8.41,-1.25c-7.95,-1.29 -15.81,-2.9 -23.55,-4.79c-2.61,-0.63 -5.21,-1.3 -7.8,-2.02l3.33,-25.54l8.89,-68.23l4,14.78l3.68,13.61l19.86,73.44l0,0z" fill="#272223" id="svg_8" opacity="0.1"/>
  <path d="m437.55,596.14c-2.18,0.97 -4.37,1.91 -6.58,2.82l0,0c-0.33,0.14 -0.66,0.28 -0.99,0.42c-0.58,0.24 -1.16,0.48 -1.75,0.71c-8,3.24 -16.16,6.15 -24.47,8.71l0,0c-19.74,-13.97 -34.95,-33.43 -43.73,-55.97l-4.68,-12.01l-29.98,-86.84l66.42,69.69l12.14,19.22l18.65,29.52l14.98,23.72l-0.01,0l0,0.01z" fill="#272223" id="svg_9" opacity="0.1"/>
  <path d="m502.57,557.23c-17.34,13.5 -36.14,25.2 -56.14,34.82c-2.49,1.2 -5.01,2.36 -7.54,3.5c-0.45,0.2 -0.89,0.4 -1.34,0.59c-2.18,0.97 -4.37,1.91 -6.58,2.82l0,0c-1.09,-0.42 -2.17,-0.87 -3.24,-1.34c-10.97,-4.8 -20.77,-12.1 -29.42,-20.63c-11.62,-11.49 -21.14,-25.23 -28.61,-38.21c-3.68,-6.39 -6.86,-12.6 -9.55,-18.26l-0.04,-0.09c-7.25,-15.33 -10.84,-26.61 -10.84,-26.61l-9.65,-39.63l-2.65,-10.87l0,0l-15.08,-61.88l-5.48,-22.5l8.18,-0.36l22.35,-0.98l24.65,-1.09c5.68,0.43 11.22,1.49 16.55,3.15c17.11,5.25 31.99,16.47 41.76,31.91c26.86,42.47 69.87,117.38 72.68,165.66l-0.01,0z" fill="#dddedf" id="svg_10"/>
  <path d="m221.73,331.37c12.97,-4.67 47.3,-4.69 62.7,0.51c2.99,1.01 4.8,4.05 4.28,7.16l-0.61,3.69c1.34,-0.2 2.65,-0.58 3.89,-1.15c3.67,-1.68 10.9,-3.96 18.2,-0.32c5.1,2.54 8.69,7.33 9.95,12.9c3.01,13.32 -4.58,20.69 -4.58,20.69l-10.11,9.49c-8.47,7.94 -17.71,15.02 -27.58,21.12l-0.2,0.12l3.6,-21.66c2.03,3.57 6.62,4.74 10.11,2.58c8.82,-5.46 23.23,-16.4 21.48,-28.82c-1.22,-8.66 -6.03,-10.5 -10.65,-10.11c-5.17,0.44 -9.68,3.69 -11.89,8.38c-0.53,1.12 -1.4,2.04 -2.48,2.64l-2.6,1.42l-7.62,45.91c-0.34,2.06 -1.66,3.84 -3.53,4.76c-17.92,8.79 -37.26,4.23 -43.95,2.18c-1.53,-0.47 -2.84,-1.48 -3.66,-2.86l-1.44,-2.39c-0.5,-0.82 -0.8,-1.75 -0.9,-2.7l-6.65,-66.82c-0.29,-2.95 1.46,-5.71 4.25,-6.72l-0.01,0z" fill="#9a4260" id="svg_11"/>
  <path d="m282.9,334.92c0,1.57 -13.49,2.84 -30.13,2.84s-30.13,-1.27 -30.13,-2.84s13.49,-2.84 30.13,-2.84s30.13,1.27 30.13,2.84z" fill="#dedfe0" id="svg_12"/>
  <path d="m297.47,397.64c-11.34,-16.3 -11.75,-35.47 -0.92,-42.83c10.83,-7.36 28.79,-0.12 40.13,16.19c4.62,6.45 7.56,13.93 8.58,21.82l47.12,69.67l-34.58,21.9l-42.78,-71c-7.09,-3.76 -13.11,-9.16 -17.55,-15.74l0,0l0,-0.01z" fill="#f6a6a9" id="uuid-4649cc22-8d47-4d9d-b2d1-a070273bfea6-291"/>
  <polygon fill="#dddedf" id="svg_13" points="325.36 453.99 364.3 418.15 441.29 489.84 369.69 538.78 325.36 453.99"/>
  <polygon fill="#272223" id="svg_14" opacity="0.1" points="434.49 499.78 437.55 523.29 417.15 499.78 417.15 476.07 434.49 499.78"/>
 </g>
</svg>