<svg xmlns="http://www.w3.org/2000/svg" xmlns:xlink="http://www.w3.org/1999/xlink" width="500" zoomAndPan="magnify" viewBox="0 0 375 374.999991" height="500" preserveAspectRatio="xMidYMid meet" version="1.0"><defs><g/></defs><path stroke-linecap="butt" transform="matrix(0.75, 0, 0, 0.75, 11.344423, -35.999998)" fill="none" stroke-linejoin="miter" d="M 433.967881 461.265652 L 402.092879 114.390629 C 401.624129 110.406254 399.749129 108.296879 395.530378 108.296879 L 394.827253 108.296879 C 390.842878 108.296879 389.671003 110.406254 387.796003 113.687504 L 234.983493 405.250023 L 82.170983 113.687504 C 80.061608 110.406254 79.124108 108.296879 75.139732 108.296879 L 74.202232 108.296879 C 70.217857 108.296879 68.108482 110.406254 67.639732 114.390629 L 35.999105 461.265652 C 35.29598 466.890653 38.10848 469.468778 43.030355 469.468778 L 67.874107 469.468778 C 72.561607 469.468778 74.905357 467.359403 75.608482 461.968777 L 97.170984 218.453136 L 226.545992 466.656277 C 229.358493 471.109403 231.233493 473.218778 234.749118 473.218778 L 234.983493 473.218778 C 238.733493 473.218778 240.608493 471.109403 243.186618 466.656277 L 372.561627 218.453136 L 394.358503 461.968777 C 394.827253 467.359403 397.405379 469.468778 402.092879 469.468778 L 426.936631 469.468778 C 431.624131 469.468778 434.436631 466.890653 433.967881 461.265652 Z M 433.967881 461.265652 " stroke="#9f4164" stroke-width="36" stroke-opacity="1" stroke-miterlimit="4"/><g fill="#9f4164" fill-opacity="1"><g transform="translate(13.559267, 315.749979)"><g><path d="M 323.261719 -5.800781 L 299.355469 -265.957031 C 299.003906 -268.945312 297.597656 -270.527344 294.433594 -270.527344 L 293.90625 -270.527344 C 290.917969 -270.527344 290.039062 -268.945312 288.632812 -266.484375 L 174.023438 -47.8125 L 59.414062 -266.484375 C 57.832031 -268.945312 57.128906 -270.527344 54.140625 -270.527344 L 53.4375 -270.527344 C 50.449219 -270.527344 48.867188 -268.945312 48.515625 -265.957031 L 24.785156 -5.800781 C 24.257812 -1.582031 26.367188 0.351562 30.058594 0.351562 L 48.691406 0.351562 C 52.207031 0.351562 53.964844 -1.230469 54.492188 -5.273438 L 70.664062 -187.910156 L 167.695312 -1.757812 C 169.804688 1.582031 171.210938 3.164062 173.847656 3.164062 L 174.023438 3.164062 C 176.835938 3.164062 178.242188 1.582031 180.175781 -1.757812 L 277.207031 -187.910156 L 293.554688 -5.273438 C 293.90625 -1.230469 295.839844 0.351562 299.355469 0.351562 L 317.988281 0.351562 C 321.503906 0.351562 323.613281 -1.582031 323.261719 -5.800781 Z M 323.261719 -5.800781 "/></g></g></g></svg>